<svg width="63" height="63" viewBox="0 0 63 63" fill="none" xmlns="http://www.w3.org/2000/svg">
<g opacity="0.5">
<path opacity="0.2" d="M53.1562 11.8125V51.1875C53.1562 51.7096 52.9488 52.2104 52.5796 52.5796C52.2104 52.9488 51.7096 53.1562 51.1875 53.1562H15.75L9.84375 47.25V11.8125C9.84375 11.2904 10.0512 10.7896 10.4204 10.4204C10.7896 10.0512 11.2904 9.84375 11.8125 9.84375H51.1875C51.7096 9.84375 52.2104 10.0512 52.5796 10.4204C52.9488 10.7896 53.1562 11.2904 53.1562 11.8125Z" fill="#47801B"/>
<path d="M55.1261 11.8125V51.1875C55.1261 52.2318 54.7112 53.2333 53.9728 53.9717C53.2344 54.7102 52.2329 55.125 51.1886 55.125H33.4698C32.9477 55.125 32.4469 54.9176 32.0777 54.5484C31.7085 54.1792 31.5011 53.6784 31.5011 53.1563C31.5011 52.6341 31.7085 52.1333 32.0777 51.7641C32.4469 51.3949 32.9477 51.1875 33.4698 51.1875H51.1886V11.8125H11.8136V35.4375C11.8136 35.9596 11.6062 36.4604 11.237 36.8296C10.8677 37.1988 10.367 37.4063 9.84484 37.4063C9.3227 37.4063 8.82194 37.1988 8.45273 36.8296C8.08352 36.4604 7.87609 35.9596 7.87609 35.4375V11.8125C7.87609 10.7682 8.29094 9.76669 9.02936 9.02827C9.76779 8.28984 10.7693 7.875 11.8136 7.875H51.1886C52.2329 7.875 53.2344 8.28984 53.9728 9.02827C54.7112 9.76669 55.1261 10.7682 55.1261 11.8125ZM30.9252 37.9821C30.7424 37.7991 30.5253 37.6538 30.2863 37.5548C30.0473 37.4557 29.7911 37.4047 29.5323 37.4047C29.2736 37.4047 29.0174 37.4557 28.7784 37.5548C28.5394 37.6538 28.3223 37.7991 28.1395 37.9821L15.7511 50.3729L11.2377 45.8571C11.0548 45.6742 10.8377 45.5291 10.5987 45.4301C10.3597 45.3311 10.1035 45.2802 9.84484 45.2802C9.58616 45.2802 9.33001 45.3311 9.09102 45.4301C8.85202 45.5291 8.63487 45.6742 8.45195 45.8571C8.26904 46.04 8.12394 46.2572 8.02495 46.4962C7.92595 46.7352 7.875 46.9913 7.875 47.25C7.875 47.5087 7.92595 47.7648 8.02495 48.0038C8.12394 48.2428 8.26904 48.46 8.45195 48.6429L14.3582 54.5491C14.541 54.7322 14.7582 54.8774 14.9972 54.9765C15.2362 55.0756 15.4924 55.1265 15.7511 55.1265C16.0098 55.1265 16.266 55.0756 16.505 54.9765C16.744 54.8774 16.9611 54.7322 17.144 54.5491L30.9252 40.7679C31.1083 40.585 31.2535 40.3679 31.3526 40.1289C31.4516 39.8899 31.5026 39.6337 31.5026 39.375C31.5026 39.1163 31.4516 38.8601 31.3526 38.6211C31.2535 38.3821 31.1083 38.165 30.9252 37.9821Z" fill="#47801B"/>
</g>
</svg>
