<svg width="25" height="25" viewBox="0 0 25 25" fill="none" xmlns="http://www.w3.org/2000/svg">
<path d="M20.9881 16.8513C20.4692 15.9576 19.698 13.4288 19.698 10.1261C19.698 8.14264 18.9101 6.24042 17.5076 4.8379C16.105 3.43539 14.2028 2.64746 12.2194 2.64746C10.2359 2.64746 8.33369 3.43539 6.93118 4.8379C5.52866 6.24042 4.74074 8.14264 4.74074 10.1261C4.74074 13.4298 3.96857 15.9576 3.44974 16.8513C3.31724 17.0785 3.24701 17.3366 3.2461 17.5996C3.2452 17.8626 3.31367 18.1212 3.4446 18.3493C3.57552 18.5774 3.76429 18.767 3.99185 18.8988C4.21941 19.0307 4.47772 19.1003 4.74074 19.1005H8.55577C8.72832 19.9448 9.18718 20.7035 9.85475 21.2485C10.5223 21.7934 11.3576 22.0911 12.2194 22.0911C13.0811 22.0911 13.9164 21.7934 14.584 21.2485C15.2516 20.7035 15.7104 19.9448 15.883 19.1005H19.698C19.9609 19.1001 20.2191 19.0304 20.4466 18.8985C20.674 18.7666 20.8626 18.577 20.9934 18.3489C21.1243 18.1208 21.1926 17.8623 21.1917 17.5994C21.1908 17.3364 21.1205 17.0784 20.9881 16.8513ZM12.2194 20.5962C11.7555 20.596 11.3031 20.4521 10.9244 20.1843C10.5458 19.9164 10.2594 19.5378 10.1048 19.1005H14.334C14.1793 19.5378 13.893 19.9164 13.5143 20.1843C13.1356 20.4521 12.6832 20.596 12.2194 20.5962ZM4.74074 17.6047C5.46055 16.367 6.23646 13.499 6.23646 10.1261C6.23646 8.53933 6.8668 7.01755 7.98882 5.89554C9.11083 4.77353 10.6326 4.14319 12.2194 4.14319C13.8061 4.14319 15.3279 4.77353 16.4499 5.89554C17.5719 7.01755 18.2023 8.53933 18.2023 10.1261C18.2023 13.4962 18.9763 16.3642 19.698 17.6047H4.74074Z" fill="#EFEFEF"/>
</svg>
