<svg width="63" height="63" viewBox="0 0 63 63" fill="none" xmlns="http://www.w3.org/2000/svg">
<g opacity="0.5">
<path opacity="0.2" d="M55.125 31.5C55.125 36.1726 53.7394 40.7402 51.1435 44.6253C48.5475 48.5105 44.8578 51.5385 40.5409 53.3267C36.224 55.1148 31.4738 55.5826 26.891 54.6711C22.3082 53.7595 18.0986 51.5094 14.7946 48.2054C11.4906 44.9014 9.24053 40.6918 8.32896 36.109C7.41738 31.5262 7.88524 26.776 9.67336 22.4591C11.4615 18.1422 14.4896 14.4525 18.3747 11.8565C22.2598 9.26058 26.8274 7.875 31.5 7.875C37.7658 7.875 43.7749 10.3641 48.2054 14.7946C52.636 19.2251 55.125 25.2343 55.125 31.5Z" fill="#4D1B80"/>
<path d="M31.5 5.90625C26.438 5.90625 21.4898 7.4073 17.2809 10.2196C13.072 13.0319 9.7916 17.029 7.85447 21.7057C5.91734 26.3823 5.4105 31.5284 6.39804 36.4931C7.38558 41.4578 9.82315 46.0182 13.4025 49.5975C16.9818 53.1769 21.5422 55.6144 26.5069 56.602C31.4716 57.5895 36.6177 57.0827 41.2943 55.1455C45.971 53.2084 49.9682 49.928 52.7804 45.7191C55.5927 41.5103 57.0938 36.562 57.0938 31.5C57.0866 24.7143 54.3878 18.2086 49.5896 13.4104C44.7914 8.61219 38.2857 5.91342 31.5 5.90625ZM31.5 53.1562C27.2168 53.1562 23.0298 51.8861 19.4684 49.5065C15.9071 47.1269 13.1314 43.7447 11.4922 39.7875C9.85313 35.8303 9.42427 31.476 10.2599 27.2751C11.0955 23.0742 13.158 19.2154 16.1867 16.1867C19.2154 13.158 23.0742 11.0955 27.2751 10.2599C31.476 9.42426 35.8303 9.85312 39.7875 11.4922C43.7447 13.1313 47.1269 15.9071 49.5065 19.4684C51.8861 23.0298 53.1563 27.2168 53.1563 31.5C53.1497 37.2416 50.866 42.7462 46.8061 46.8061C42.7462 50.866 37.2416 53.1497 31.5 53.1562ZM41.3438 36.4219C41.3438 38.2494 40.6178 40.002 39.3255 41.2943C38.0333 42.5865 36.2806 43.3125 34.4531 43.3125H33.4688V45.2812C33.4688 45.8034 33.2613 46.3042 32.8921 46.6734C32.5229 47.0426 32.0222 47.25 31.5 47.25C30.9779 47.25 30.4771 47.0426 30.1079 46.6734C29.7387 46.3042 29.5313 45.8034 29.5313 45.2812V43.3125H25.5938C25.0716 43.3125 24.5709 43.1051 24.2016 42.7359C23.8324 42.3667 23.625 41.8659 23.625 41.3438C23.625 40.8216 23.8324 40.3208 24.2016 39.9516C24.5709 39.5824 25.0716 39.375 25.5938 39.375H34.4531C35.2364 39.375 35.9875 39.0639 36.5413 38.51C37.0951 37.9562 37.4063 37.2051 37.4063 36.4219C37.4063 35.6387 37.0951 34.8875 36.5413 34.3337C35.9875 33.7799 35.2364 33.4688 34.4531 33.4688H28.5469C26.7194 33.4688 24.9667 32.7428 23.6745 31.4505C22.3822 30.1583 21.6563 28.4056 21.6563 26.5781C21.6563 24.7506 22.3822 22.998 23.6745 21.7057C24.9667 20.4135 26.7194 19.6875 28.5469 19.6875H29.5313V17.7188C29.5313 17.1966 29.7387 16.6958 30.1079 16.3266C30.4771 15.9574 30.9779 15.75 31.5 15.75C32.0222 15.75 32.5229 15.9574 32.8921 16.3266C33.2613 16.6958 33.4688 17.1966 33.4688 17.7188V19.6875H37.4063C37.9284 19.6875 38.4292 19.8949 38.7984 20.2641C39.1676 20.6333 39.375 21.1341 39.375 21.6562C39.375 22.1784 39.1676 22.6792 38.7984 23.0484C38.4292 23.4176 37.9284 23.625 37.4063 23.625H28.5469C27.7637 23.625 27.0125 23.9361 26.4587 24.49C25.9049 25.0438 25.5938 25.7949 25.5938 26.5781C25.5938 27.3613 25.9049 28.1125 26.4587 28.6663C27.0125 29.2201 27.7637 29.5312 28.5469 29.5312H34.4531C36.2806 29.5312 38.0333 30.2572 39.3255 31.5495C40.6178 32.8417 41.3438 34.5944 41.3438 36.4219Z" fill="#4D1B80"/>
</g>
</svg>
