<svg width="21" height="20" viewBox="0 0 21 20" fill="none" xmlns="http://www.w3.org/2000/svg">
<path d="M16.125 1.875H6.125C5.79348 1.875 5.47554 2.0067 5.24112 2.24112C5.0067 2.47554 4.875 2.79348 4.875 3.125V5H3.625C3.29348 5 2.97554 5.1317 2.74112 5.36612C2.5067 5.60054 2.375 5.91848 2.375 6.25V13.75C2.375 14.0815 2.5067 14.3995 2.74112 14.6339C2.97554 14.8683 3.29348 15 3.625 15H4.875V16.875C4.875 17.2065 5.0067 17.5245 5.24112 17.7589C5.47554 17.9933 5.79348 18.125 6.125 18.125H16.125C16.4565 18.125 16.7745 17.9933 17.0089 17.7589C17.2433 17.5245 17.375 17.2065 17.375 16.875V3.125C17.375 2.79348 17.2433 2.47554 17.0089 2.24112C16.7745 2.0067 16.4565 1.875 16.125 1.875ZM13 8.125H16.125V11.875H13V8.125ZM16.125 6.875H13V6.25C13 5.91848 12.8683 5.60054 12.6339 5.36612C12.3995 5.1317 12.0815 5 11.75 5V3.125H16.125V6.875ZM6.125 3.125H10.5V5H6.125V3.125ZM3.625 6.25H11.75V12.4867C11.75 12.4914 11.75 12.4953 11.75 12.5C11.75 12.5047 11.75 12.5086 11.75 12.5133V13.75H3.625V6.25ZM6.125 15H10.5V16.875H6.125V15ZM11.75 16.875V15C12.0815 15 12.3995 14.8683 12.6339 14.6339C12.8683 14.3995 13 14.0815 13 13.75V13.125H16.125V16.875H11.75ZM5.64453 11.475L6.87422 10L5.64453 8.525C5.53844 8.39757 5.48732 8.23322 5.50241 8.0681C5.51751 7.90298 5.59757 7.75062 5.725 7.64453C5.85243 7.53844 6.01678 7.48732 6.1819 7.50241C6.34702 7.51751 6.49938 7.59757 6.60547 7.725L7.6875 9.02344L8.76953 7.725C8.82206 7.6619 8.8865 7.60977 8.95918 7.57158C9.03185 7.53339 9.11134 7.50989 9.1931 7.50241C9.27486 7.49494 9.35729 7.50365 9.43568 7.52803C9.51408 7.55242 9.5869 7.592 9.65 7.64453C9.7131 7.69706 9.76523 7.7615 9.80342 7.83418C9.84161 7.90685 9.86511 7.98634 9.87259 8.0681C9.88006 8.14986 9.87135 8.23229 9.84697 8.31068C9.82258 8.38908 9.783 8.4619 9.73047 8.525L8.50078 10L9.73047 11.475C9.83656 11.6024 9.88768 11.7668 9.87259 11.9319C9.85749 12.097 9.77743 12.2494 9.65 12.3555C9.52257 12.4616 9.35822 12.5127 9.1931 12.4976C9.02798 12.4825 8.87562 12.4024 8.76953 12.275L7.6875 10.9766L6.60547 12.275C6.49938 12.4024 6.34702 12.4825 6.1819 12.4976C6.01678 12.5127 5.85243 12.4616 5.725 12.3555C5.59757 12.2494 5.51751 12.097 5.50241 11.9319C5.48732 11.7668 5.53844 11.6024 5.64453 11.475Z" fill="#45852E"/>
</svg>
