<svg width="63" height="63" viewBox="0 0 63 63" fill="none" xmlns="http://www.w3.org/2000/svg">
<g opacity="0.5">
<path opacity="0.2" d="M53.1562 11.8125V39.375C53.1562 39.8971 52.9488 40.3979 52.5796 40.7671C52.2104 41.1363 51.7096 41.3438 51.1875 41.3438H41.3438V23.625C41.3438 23.1029 41.1363 22.6021 40.7671 22.2329C40.3979 21.8637 39.8971 21.6562 39.375 21.6562H21.6562V11.8125C21.6562 11.2904 21.8637 10.7896 22.2329 10.4204C22.6021 10.0512 23.1029 9.84375 23.625 9.84375H51.1875C51.7096 9.84375 52.2104 10.0512 52.5796 10.4204C52.9488 10.7896 53.1562 11.2904 53.1562 11.8125Z" fill="#80521B"/>
<path d="M39.375 19.6875H11.8125C10.7682 19.6875 9.76669 20.1023 9.02827 20.8408C8.28984 21.5792 7.875 22.5807 7.875 23.625V51.1875C7.875 52.2318 8.28984 53.2333 9.02827 53.9717C9.76669 54.7102 10.7682 55.125 11.8125 55.125H39.375C40.4193 55.125 41.4208 54.7102 42.1592 53.9717C42.8977 53.2333 43.3125 52.2318 43.3125 51.1875V23.625C43.3125 22.5807 42.8977 21.5792 42.1592 20.8408C41.4208 20.1023 40.4193 19.6875 39.375 19.6875ZM39.375 51.1875H11.8125V23.625H39.375V51.1875ZM33.4688 9.84375C33.4688 9.3216 33.6762 8.82085 34.0454 8.45163C34.4146 8.08242 34.9154 7.875 35.4375 7.875H39.375C39.8971 7.875 40.3979 8.08242 40.7671 8.45163C41.1363 8.82085 41.3438 9.3216 41.3438 9.84375C41.3438 10.3659 41.1363 10.8667 40.7671 11.2359C40.3979 11.6051 39.8971 11.8125 39.375 11.8125H35.4375C34.9154 11.8125 34.4146 11.6051 34.0454 11.2359C33.6762 10.8667 33.4688 10.3659 33.4688 9.84375ZM55.125 11.8125V13.7812C55.125 14.3034 54.9176 14.8042 54.5484 15.1734C54.1792 15.5426 53.6784 15.75 53.1562 15.75C52.6341 15.75 52.1333 15.5426 51.7641 15.1734C51.3949 14.8042 51.1875 14.3034 51.1875 13.7812V11.8125H49.2188C48.6966 11.8125 48.1958 11.6051 47.8266 11.2359C47.4574 10.8667 47.25 10.3659 47.25 9.84375C47.25 9.3216 47.4574 8.82085 47.8266 8.45163C48.1958 8.08242 48.6966 7.875 49.2188 7.875H51.1875C52.2318 7.875 53.2333 8.28984 53.9717 9.02827C54.7102 9.76669 55.125 10.7682 55.125 11.8125ZM55.125 23.625V27.5625C55.125 28.0846 54.9176 28.5854 54.5484 28.9546C54.1792 29.3238 53.6784 29.5312 53.1562 29.5312C52.6341 29.5312 52.1333 29.3238 51.7641 28.9546C51.3949 28.5854 51.1875 28.0846 51.1875 27.5625V23.625C51.1875 23.1029 51.3949 22.6021 51.7641 22.2329C52.1333 21.8637 52.6341 21.6562 53.1562 21.6562C53.6784 21.6562 54.1792 21.8637 54.5484 22.2329C54.9176 22.6021 55.125 23.1029 55.125 23.625ZM55.125 37.4062V39.375C55.125 40.4193 54.7102 41.4208 53.9717 42.1592C53.2333 42.8977 52.2318 43.3125 51.1875 43.3125H49.2188C48.6966 43.3125 48.1958 43.1051 47.8266 42.7359C47.4574 42.3667 47.25 41.8659 47.25 41.3438C47.25 40.8216 47.4574 40.3208 47.8266 39.9516C48.1958 39.5824 48.6966 39.375 49.2188 39.375H51.1875V37.4062C51.1875 36.8841 51.3949 36.3833 51.7641 36.0141C52.1333 35.6449 52.6341 35.4375 53.1562 35.4375C53.6784 35.4375 54.1792 35.6449 54.5484 36.0141C54.9176 36.3833 55.125 36.8841 55.125 37.4062ZM19.6875 13.7812V11.8125C19.6875 10.7682 20.1023 9.76669 20.8408 9.02827C21.5792 8.28984 22.5807 7.875 23.625 7.875H25.5938C26.1159 7.875 26.6167 8.08242 26.9859 8.45163C27.3551 8.82085 27.5625 9.3216 27.5625 9.84375C27.5625 10.3659 27.3551 10.8667 26.9859 11.2359C26.6167 11.6051 26.1159 11.8125 25.5938 11.8125H23.625V13.7812C23.625 14.3034 23.4176 14.8042 23.0484 15.1734C22.6792 15.5426 22.1784 15.75 21.6562 15.75C21.1341 15.75 20.6333 15.5426 20.2641 15.1734C19.8949 14.8042 19.6875 14.3034 19.6875 13.7812Z" fill="#80521B"/>
</g>
</svg>
