<svg width="24" height="24" viewBox="0 0 24 24" fill="none" xmlns="http://www.w3.org/2000/svg">
<path d="M11.8994 15.0208L14.0207 12.8995L4.1212 3.00002C2.94963 4.17159 2.94963 6.07109 4.1212 7.24266L11.8994 15.0208ZM11.8994 15.0208L9.77834 12.8995L19.6778 3C20.8494 4.17157 20.8494 6.07107 19.6778 7.24264L11.8994 15.0208ZM21 17.9999C21 19.6568 19.6569 20.9999 18 20.9999C16.3431 20.9999 15 19.6568 15 17.9999C15 16.3431 16.3431 14.9999 18 14.9999C19.6569 14.9999 21 16.3431 21 17.9999ZM9 17.9999C9 19.6568 7.65685 20.9999 6 20.9999C4.34315 20.9999 3 19.6568 3 17.9999C3 16.3431 4.34315 14.9999 6 14.9999C7.65685 14.9999 9 16.3431 9 17.9999Z" stroke="white" stroke-width="2" stroke-linejoin="round"/>
</svg>
