<svg width="63" height="63" viewBox="0 0 63 63" fill="none" xmlns="http://www.w3.org/2000/svg">
<g opacity="0.5">
<path opacity="0.2" d="M43.3125 19.6875V43.3125H19.6875V19.6875H43.3125Z" fill="#143C5A"/>
<path d="M25.5938 9.84375C25.5938 9.3216 25.8012 8.82085 26.1704 8.45163C26.5396 8.08242 27.0404 7.875 27.5625 7.875H35.4375C35.9596 7.875 36.4604 8.08242 36.8296 8.45163C37.1988 8.82085 37.4062 9.3216 37.4062 9.84375C37.4062 10.3659 37.1988 10.8667 36.8296 11.2359C36.4604 11.6051 35.9596 11.8125 35.4375 11.8125H27.5625C27.0404 11.8125 26.5396 11.6051 26.1704 11.2359C25.8012 10.8667 25.5938 10.3659 25.5938 9.84375ZM35.4375 51.1875H27.5625C27.0404 51.1875 26.5396 51.3949 26.1704 51.7641C25.8012 52.1333 25.5938 52.6341 25.5938 53.1562C25.5938 53.6784 25.8012 54.1792 26.1704 54.5484C26.5396 54.9176 27.0404 55.125 27.5625 55.125H35.4375C35.9596 55.125 36.4604 54.9176 36.8296 54.5484C37.1988 54.1792 37.4062 53.6784 37.4062 53.1562C37.4062 52.6341 37.1988 52.1333 36.8296 51.7641C36.4604 51.3949 35.9596 51.1875 35.4375 51.1875ZM51.1875 7.875H45.2812C44.7591 7.875 44.2583 8.08242 43.8891 8.45163C43.5199 8.82085 43.3125 9.3216 43.3125 9.84375C43.3125 10.3659 43.5199 10.8667 43.8891 11.2359C44.2583 11.6051 44.7591 11.8125 45.2812 11.8125H51.1875V17.7188C51.1875 18.2409 51.3949 18.7417 51.7641 19.1109C52.1333 19.4801 52.6341 19.6875 53.1562 19.6875C53.6784 19.6875 54.1792 19.4801 54.5484 19.1109C54.9176 18.7417 55.125 18.2409 55.125 17.7188V11.8125C55.125 10.7682 54.7102 9.76669 53.9717 9.02827C53.2333 8.28984 52.2318 7.875 51.1875 7.875ZM53.1562 25.5938C52.6341 25.5938 52.1333 25.8012 51.7641 26.1704C51.3949 26.5396 51.1875 27.0404 51.1875 27.5625V35.4375C51.1875 35.9596 51.3949 36.4604 51.7641 36.8296C52.1333 37.1988 52.6341 37.4062 53.1562 37.4062C53.6784 37.4062 54.1792 37.1988 54.5484 36.8296C54.9176 36.4604 55.125 35.9596 55.125 35.4375V27.5625C55.125 27.0404 54.9176 26.5396 54.5484 26.1704C54.1792 25.8012 53.6784 25.5938 53.1562 25.5938ZM53.1562 43.3125C52.6341 43.3125 52.1333 43.5199 51.7641 43.8891C51.3949 44.2583 51.1875 44.7591 51.1875 45.2812V51.1875H45.2812C44.7591 51.1875 44.2583 51.3949 43.8891 51.7641C43.5199 52.1333 43.3125 52.6341 43.3125 53.1562C43.3125 53.6784 43.5199 54.1792 43.8891 54.5484C44.2583 54.9176 44.7591 55.125 45.2812 55.125H51.1875C52.2318 55.125 53.2333 54.7102 53.9717 53.9717C54.7102 53.2333 55.125 52.2318 55.125 51.1875V45.2812C55.125 44.7591 54.9176 44.2583 54.5484 43.8891C54.1792 43.5199 53.6784 43.3125 53.1562 43.3125ZM9.84375 37.4062C10.3659 37.4062 10.8667 37.1988 11.2359 36.8296C11.6051 36.4604 11.8125 35.9596 11.8125 35.4375V27.5625C11.8125 27.0404 11.6051 26.5396 11.2359 26.1704C10.8667 25.8012 10.3659 25.5938 9.84375 25.5938C9.3216 25.5938 8.82085 25.8012 8.45163 26.1704C8.08242 26.5396 7.875 27.0404 7.875 27.5625V35.4375C7.875 35.9596 8.08242 36.4604 8.45163 36.8296C8.82085 37.1988 9.3216 37.4062 9.84375 37.4062ZM17.7188 51.1875H11.8125V45.2812C11.8125 44.7591 11.6051 44.2583 11.2359 43.8891C10.8667 43.5199 10.3659 43.3125 9.84375 43.3125C9.3216 43.3125 8.82085 43.5199 8.45163 43.8891C8.08242 44.2583 7.875 44.7591 7.875 45.2812V51.1875C7.875 52.2318 8.28984 53.2333 9.02827 53.9717C9.76669 54.7102 10.7682 55.125 11.8125 55.125H17.7188C18.2409 55.125 18.7417 54.9176 19.1109 54.5484C19.4801 54.1792 19.6875 53.6784 19.6875 53.1562C19.6875 52.6341 19.4801 52.1333 19.1109 51.7641C18.7417 51.3949 18.2409 51.1875 17.7188 51.1875ZM9.84375 19.6875C10.3659 19.6875 10.8667 19.4801 11.2359 19.1109C11.6051 18.7417 11.8125 18.2409 11.8125 17.7188V11.8125H17.7188C18.2409 11.8125 18.7417 11.6051 19.1109 11.2359C19.4801 10.8667 19.6875 10.3659 19.6875 9.84375C19.6875 9.3216 19.4801 8.82085 19.1109 8.45163C18.7417 8.08242 18.2409 7.875 17.7188 7.875H11.8125C10.7682 7.875 9.76669 8.28984 9.02827 9.02827C8.28984 9.76669 7.875 10.7682 7.875 11.8125V17.7188C7.875 18.2409 8.08242 18.7417 8.45163 19.1109C8.82085 19.4801 9.3216 19.6875 9.84375 19.6875ZM43.3125 45.2812H19.6875C19.1654 45.2812 18.6646 45.0738 18.2954 44.7046C17.9262 44.3354 17.7188 43.8346 17.7188 43.3125V19.6875C17.7188 19.1654 17.9262 18.6646 18.2954 18.2954C18.6646 17.9262 19.1654 17.7188 19.6875 17.7188H43.3125C43.8346 17.7188 44.3354 17.9262 44.7046 18.2954C45.0738 18.6646 45.2812 19.1654 45.2812 19.6875V43.3125C45.2812 43.8346 45.0738 44.3354 44.7046 44.7046C44.3354 45.0738 43.8346 45.2812 43.3125 45.2812ZM41.3438 21.6562H21.6562V41.3438H41.3438V21.6562Z" fill="#143C5A"/>
</g>
</svg>
